<svg width="50" height="16" xmlns="http://www.w3.org/2000/svg">
 <!-- Created with Method Draw - http://github.com/duopixel/Method-Draw/ -->

 <g>
  <title>background</title>
  <rect fill="none" id="canvas_background" height="18" width="52" y="-1" x="-1"/>
  <g display="none" overflow="visible" y="0" x="0" height="100%" width="100%" id="canvasGrid">
   <rect fill="url(#gridpattern)" stroke-width="0" y="0" x="0" height="100%" width="100%"/>
  </g>
 </g>
 <g>
  <title>Layer 1</title>
  <g id="svg_9">
   <g transform="matrix(0.10679653799616862,0,0,0.10679653799616862,0,0) " id="svg_7">
    <g id="svg_5">
     <path id="svg_8" fill="#d3d3d3" d="m81.090088,23.908739c-28.05,0 -51,22.95 -51,51s22.95,51 51,51s51,-22.95 51,-51s-22.95,-51 -51,-51zm306,0c-28.05,0 -51,22.95 -51,51s22.95,51 51,51s51,-22.95 51,-51s-22.95,-51 -51,-51zm-153,0c-28.05,0 -51,22.95 -51,51s22.95,51 51,51s51,-22.95 51,-51s-22.95,-51 -51,-51z"/>
    </g>
   </g>
  </g>
 </g>
</svg>